<svg xmlns="http://www.w3.org/2000/svg" width="268.53" height="591.168" viewBox="0 0 268.53 591.168">
  <g id="Group_135" data-name="Group 135" transform="translate(-1072.229 -2155.5)">
    <g id="apple-watch-wire" transform="translate(261.859 1944.979)">
      <g id="Group_30" data-name="Group 30" transform="translate(810.87 211.021)">
        <g id="Group_27" data-name="Group 27" transform="translate(48.144 440.19)">
          <path id="Path_67" data-name="Path 67" d="M902.72,851.354h95.072a28.059,28.059,0,0,0,28-29.568,452.77,452.77,0,0,1,6.191-102.677q1.516-8.576,3.313-16.836H865.165q1.911,8.723,3.518,17.811a447.264,447.264,0,0,1,6.041,101.645A28.068,28.068,0,0,0,902.72,851.354Z" transform="translate(-864.608 -701.824)" fill="#424242" stroke="#1d1d1d" stroke-width="1"/>
          <path id="Path_68" data-name="Path 68" d="M997.729,851.752H902.656a28.516,28.516,0,0,1-28.444-30.1,448.354,448.354,0,0,0-6.035-101.543c-1.042-5.917-2.224-11.9-3.514-17.793l-.119-.545h171.242l-.119.544c-1.2,5.552-2.317,11.211-3.309,16.818a453.917,453.917,0,0,0-6.185,102.575,28.506,28.506,0,0,1-28.446,30.041ZM865.659,702.67c1.246,5.726,2.39,11.539,3.4,17.286A449.272,449.272,0,0,1,875.108,821.7a27.62,27.62,0,0,0,27.549,29.152h95.072a27.612,27.612,0,0,0,27.55-29.1,454.774,454.774,0,0,1,6.2-102.778c.961-5.436,2.035-10.92,3.2-16.31Z" transform="translate(-864.544 -701.773)" fill="#186aa5" stroke="#1d1d1d" stroke-width="1"/>
        </g>
        <g id="Group_28" data-name="Group 28" transform="translate(48.144)">
          <path id="Path_69" data-name="Path 69" d="M997.738,211.522H902.666a28.059,28.059,0,0,0-28,29.568,452.76,452.76,0,0,1-6.191,102.677q-1.516,8.576-3.312,16.836h170.129q-1.911-8.723-3.518-17.811a447.268,447.268,0,0,1-6.041-101.646A28.068,28.068,0,0,0,997.738,211.522Z" transform="translate(-864.608 -211.073)" fill="#424242" stroke="#1d1d1d" stroke-width="1"/>
          <path id="Path_70" data-name="Path 70" d="M1035.786,361H864.544l.118-.544c1.2-5.552,2.317-11.211,3.309-16.819a453.922,453.922,0,0,0,6.185-102.576,28.508,28.508,0,0,1,28.446-30.04h95.073a28.516,28.516,0,0,1,28.444,30.1,448.361,448.361,0,0,0,6.035,101.543c1.042,5.919,2.225,11.905,3.514,17.793Zm-170.13-.9h169.015c-1.245-5.724-2.391-11.536-3.4-17.285a449.275,449.275,0,0,1-6.047-101.748,27.621,27.621,0,0,0-27.549-29.152H902.6a27.612,27.612,0,0,0-27.55,29.1,454.753,454.753,0,0,1-6.2,102.777C867.893,349.23,866.818,354.714,865.656,360.1Z" transform="translate(-864.544 -211.021)" fill="#424242" stroke="#1d1d1d" stroke-width="1"/>
        </g>
        <g id="Group_29" data-name="Group 29" transform="translate(0 148.619)">
          <path id="Path_74" data-name="Path 74" d="M43.151,0H223.483a43.151,43.151,0,0,1,43.151,43.151V248.882a43.151,43.151,0,0,1-43.151,43.151H43.151A43.151,43.151,0,0,1,0,248.882V43.151A43.151,43.151,0,0,1,43.151,0Z" transform="translate(0.448 0.449)" fill="#202020" stroke="#1d1d1d" stroke-width="1"/>
          <path id="Path_71" data-name="Path 71" d="M1039.246,669.641H850.024a39.2,39.2,0,0,1-39.154-39.153V415.865a39.2,39.2,0,0,1,39.154-39.154h189.223a39.2,39.2,0,0,1,39.154,39.154V630.488A39.2,39.2,0,0,1,1039.246,669.641ZM850.024,377.608a38.3,38.3,0,0,0-38.257,38.257V630.488a38.3,38.3,0,0,0,38.257,38.256h189.223a38.3,38.3,0,0,0,38.257-38.256V415.865a38.3,38.3,0,0,0-38.257-38.257Z" transform="translate(-810.87 -376.711)" fill="#202020" stroke="#1d1d1d" stroke-width="1"/>
        </g>
        <path id="Path_75" data-name="Path 75" d="M38.837,0H212.231a38.837,38.837,0,0,1,38.837,38.837V236.148a38.837,38.837,0,0,1-38.837,38.837H38.837A38.837,38.837,0,0,1,0,236.148V38.837A38.837,38.837,0,0,1,38.837,0Z" transform="translate(8.231 157.592)" fill="#515151" stroke="#1d1d1d" stroke-width="1"/>
        <rect id="Rectangle_26" data-name="Rectangle 26" width="238.891" height="261.648" rx="36.506" transform="translate(14.32 164.26)" fill="#fff" stroke="#1d1d1d" stroke-width="1"/>
      </g>
      <g id="Group_31" data-name="Group 31" transform="translate(833.727 381.162)">
        <rect id="Rectangle_27" data-name="Rectangle 27" width="326.983" height="0.897" transform="matrix(0.662, -0.75, 0.75, 0.662, 0, 245.129)" fill="#e8eff7"/>
      </g>
      <g id="Group_32" data-name="Group 32" transform="translate(833.732 385.043)">
        <rect id="Rectangle_28" data-name="Rectangle 28" width="0.897" height="326.983" transform="matrix(0.75, -0.662, 0.662, 0.75, 0, 0.594)" fill="#e8eff7"/>
      </g>
    </g>
    <path id="Path_94" data-name="Path 94" d="M101.471,48H52.456A4.451,4.451,0,0,0,48,52.456v49.015a4.451,4.451,0,0,0,4.456,4.456h49.015a4.451,4.451,0,0,0,4.456-4.456V52.456A4.451,4.451,0,0,0,101.471,48ZM101.1,86.989A1.117,1.117,0,0,1,99.981,88.1H53.946a1.117,1.117,0,0,1-1.114-1.114V53.946a1.117,1.117,0,0,1,1.114-1.114H100a1.117,1.117,0,0,1,1.114,1.114V86.989Z" transform="translate(1125.851 2371.686)" fill="#424242"/>
  </g>
</svg>
