<svg id="Group_124" data-name="Group 124" xmlns="http://www.w3.org/2000/svg" width="855" height="423" viewBox="0 0 855 423">
  <g id="Rectangle_51" data-name="Rectangle 51" transform="translate(0 0)" fill="#fff" stroke="#1d1d1d" stroke-width="1">
    <rect width="855" height="423" rx="15" stroke="none"/>
    <rect x="0.5" y="0.5" width="854" height="422" rx="14.5" fill="none"/>
  </g>
  <g id="Group_69" data-name="Group 69" transform="translate(394.728 178.811)">
    <path id="Path_76" data-name="Path 76" d="M107.869,143.6h30.046a.877.877,0,0,0,.709-1.387l-15.031-24.17a.869.869,0,0,0-1.434,0l-15.015,24.17A.883.883,0,0,0,107.869,143.6Zm30.582-9.138,5.515,8.776a.854.854,0,0,0,.709.378h8.382a.877.877,0,0,0,.709-1.387l-9.706-13.818a.869.869,0,0,0-1.434,0l-4.191,5.058A.908.908,0,0,0,138.451,134.464Zm7-13.613a4.411,4.411,0,1,0-4.837-4.837A4.427,4.427,0,0,0,145.447,120.851Z" transform="translate(-97.691 -101.959)" fill="#424242"/>
    <path id="Path_77" data-name="Path 77" d="M108.5,48H53.042A5.036,5.036,0,0,0,48,53.042V108.5a5.036,5.036,0,0,0,5.042,5.042H108.5a5.036,5.036,0,0,0,5.042-5.042V53.042A5.036,5.036,0,0,0,108.5,48Zm-.425,44.116a1.264,1.264,0,0,1-1.26,1.26H54.728a1.264,1.264,0,0,1-1.26-1.26V54.728a1.264,1.264,0,0,1,1.26-1.26h52.1a1.264,1.264,0,0,1,1.26,1.26V92.116Z" transform="translate(-48 -48)" fill="#424242"/>
  </g>
</svg>
