<svg xmlns="http://www.w3.org/2000/svg" width="68.387" height="68.161" viewBox="0 0 68.387 68.161">
  <g id="image" transform="translate(0)">
    <path id="Path_76" data-name="Path 76" d="M107.907,144.862h31.349a.912.912,0,0,0,.74-1.442l-15.683-25.134a.908.908,0,0,0-1.5,0L107.151,143.42A.918.918,0,0,0,107.907,144.862Zm31.908-9.5,5.754,9.126a.892.892,0,0,0,.74.393h8.746a.912.912,0,0,0,.74-1.442l-10.126-14.369a.908.908,0,0,0-1.5,0l-4.373,5.26A.942.942,0,0,0,139.816,135.359Zm7.3-14.156a4.587,4.587,0,1,0-5.047-5.03A4.611,4.611,0,0,0,147.115,121.2Z" transform="translate(-97.288 -101.557)" fill="#1d1d1d"/>
    <path id="Path_77" data-name="Path 77" d="M111.126,48H53.261A5.246,5.246,0,0,0,48,53.243v57.675a5.246,5.246,0,0,0,5.261,5.243h57.866a5.246,5.246,0,0,0,5.261-5.243V53.243A5.246,5.246,0,0,0,111.126,48Zm-.444,45.878a1.317,1.317,0,0,1-1.315,1.311H55.019A1.317,1.317,0,0,1,53.7,93.878V55a1.317,1.317,0,0,1,1.315-1.311h54.364A1.317,1.317,0,0,1,110.7,55V93.878Z" transform="translate(-48 -48)" fill="#1d1d1d"/>
  </g>
</svg>
