<svg xmlns="http://www.w3.org/2000/svg" width="755" height="204" viewBox="0 0 755 204">
  <g id="Group_123" data-name="Group 123" transform="translate(-200 -1498.952)">
    <g id="Rectangle_51" data-name="Rectangle 51" transform="translate(200 1498.952)" fill="#fff" stroke="#1d1d1d" stroke-width="1">
      <rect width="755" height="204" rx="5" stroke="none"/>
      <rect x="0.5" y="0.5" width="754" height="203" rx="4.5" fill="none"/>
    </g>
    <g id="Group_69" data-name="Group 69" transform="translate(516.829 1569.647)">
      <path id="Path_76" data-name="Path 76" d="M107.766,139.934h26.553a.775.775,0,0,0,.627-1.225l-13.283-21.359a.768.768,0,0,0-1.267,0l-13.269,21.359A.781.781,0,0,0,107.766,139.934Zm27.026-8.076,4.873,7.756a.755.755,0,0,0,.627.334H147.7a.775.775,0,0,0,.627-1.225l-8.577-12.211a.768.768,0,0,0-1.267,0l-3.7,4.47A.8.8,0,0,0,134.792,131.858Zm6.182-12.03a3.9,3.9,0,1,0-4.275-4.275A3.912,3.912,0,0,0,140.974,119.828Z" transform="translate(-98.771 -103.133)" fill="#424242"/>
      <path id="Path_77" data-name="Path 77" d="M101.467,48H52.456A4.451,4.451,0,0,0,48,52.456v49.012a4.451,4.451,0,0,0,4.456,4.456h49.012a4.451,4.451,0,0,0,4.456-4.456V52.456A4.451,4.451,0,0,0,101.467,48Zm-.376,38.987A1.117,1.117,0,0,1,99.978,88.1H53.945a1.117,1.117,0,0,1-1.114-1.114V53.945a1.117,1.117,0,0,1,1.114-1.114H99.991a1.117,1.117,0,0,1,1.114,1.114V86.987Z" transform="translate(-48 -48)" fill="#424242"/>
    </g>
  </g>
</svg>
