<svg xmlns="http://www.w3.org/2000/svg" width="522" height="511" viewBox="0 0 522 511">
  <g id="Group_163" data-name="Group 163" transform="translate(-0.317)">
    <g id="Ellipse_1" data-name="Ellipse 1" transform="translate(0.317)" fill="none" stroke="#707070" stroke-width="1">
      <ellipse cx="261" cy="255.5" rx="261" ry="255.5" stroke="none"/>
      <ellipse cx="261" cy="255.5" rx="260.5" ry="255" fill="none"/>
    </g>
    <g id="Group_108" data-name="Group 108" transform="translate(178.289 175.483)">
      <path id="Path_76" data-name="Path 76" d="M109.179,190.317h74.534a2.176,2.176,0,0,0,1.759-3.439l-37.286-59.955a2.155,2.155,0,0,0-3.557,0l-37.247,59.955A2.191,2.191,0,0,0,109.179,190.317Zm75.863-22.669,13.68,21.77a2.118,2.118,0,0,0,1.759.938h20.793a2.176,2.176,0,0,0,1.759-3.44L198.956,152.64a2.155,2.155,0,0,0-3.557,0L185,165.186A2.253,2.253,0,0,0,185.042,167.648ZM202.4,133.879a10.942,10.942,0,1,0-12-12A10.982,10.982,0,0,0,202.4,133.879Z" transform="translate(-83.931 -87.017)" fill="#424242"/>
      <path id="Path_77" data-name="Path 77" d="M198.084,48H60.507A12.494,12.494,0,0,0,48,60.507V198.084a12.494,12.494,0,0,0,12.507,12.507H198.084a12.494,12.494,0,0,0,12.507-12.507V60.507A12.494,12.494,0,0,0,198.084,48Zm-1.055,109.436a3.136,3.136,0,0,1-3.127,3.127H64.689a3.136,3.136,0,0,1-3.127-3.127V64.689a3.136,3.136,0,0,1,3.127-3.127H193.941a3.136,3.136,0,0,1,3.127,3.127v92.747Z" transform="translate(-48 -48)" fill="#424242"/>
    </g>
  </g>
</svg>
