<svg xmlns="http://www.w3.org/2000/svg" width="50" height="50" viewBox="0 0 50 50">
  <g id="Group_242" data-name="Group 242" transform="translate(-671 -874.5)">
    <path id="Path_73" data-name="Path 73" d="M73,51.365A21.626,21.626,0,1,1,57.7,57.7,21.491,21.491,0,0,1,73,51.365M73,48A25,25,0,1,0,98,73,25,25,0,0,0,73,48Z" transform="translate(623 826.5)" fill="#424242"/>
    <path id="Path_72" data-name="Path 72" d="M173.905,175.943l-2.1-2.2a.446.446,0,0,0-.333-.146.429.429,0,0,0-.333.146l-14.527,14.919-5.287-5.39a.454.454,0,0,0-.667,0l-2.119,2.161a.49.49,0,0,0,0,.692l6.668,6.8a2.093,2.093,0,0,0,1.393.692,2.194,2.194,0,0,0,1.381-.668H158l15.92-16.315A.527.527,0,0,0,173.905,175.943Z" transform="translate(534.788 715.897)" fill="#424242"/>
  </g>
</svg>
