<svg xmlns="http://www.w3.org/2000/svg" width="615" height="1155" viewBox="0 0 615 1155">
  <g id="Group_106" data-name="Group 106" transform="translate(275.358 518.904)">
    <g id="Rectangle_55" data-name="Rectangle 55" transform="translate(-275.358 -518.904)" fill="#fff" stroke="#1d1d1d" stroke-width="1">
      <rect width="615" height="1155" rx="5" stroke="none"/>
      <rect x="0.5" y="0.5" width="614" height="1154" rx="4.5" fill="none"/>
    </g>
    <path id="Path_76" data-name="Path 76" d="M107.869,143.6h30.049a.877.877,0,0,0,.709-1.387l-15.032-24.171a.869.869,0,0,0-1.434,0l-15.016,24.171A.883.883,0,0,0,107.869,143.6Zm30.584-9.139,5.515,8.777a.854.854,0,0,0,.709.378h8.383a.877.877,0,0,0,.709-1.387l-9.706-13.819a.869.869,0,0,0-1.434,0l-4.191,5.058A.908.908,0,0,0,138.453,134.465Zm7-13.614a4.411,4.411,0,1,0-4.837-4.837A4.427,4.427,0,0,0,145.449,120.851Z" transform="translate(-97.69 -101.959)" fill="#424242"/>
    <path id="Path_77" data-name="Path 77" d="M108.507,48H53.042A5.037,5.037,0,0,0,48,53.042v55.465a5.037,5.037,0,0,0,5.042,5.042h55.465a5.037,5.037,0,0,0,5.042-5.042V53.042A5.037,5.037,0,0,0,108.507,48Zm-.425,44.12a1.264,1.264,0,0,1-1.261,1.261H54.728a1.264,1.264,0,0,1-1.261-1.261V54.728a1.264,1.264,0,0,1,1.261-1.261h52.108a1.264,1.264,0,0,1,1.261,1.261V92.12Z" transform="translate(-48 -48)" fill="#424242"/>
  </g>
</svg>
